<svg width="84" height="22" viewBox="0 0 84 22" fill="none" xmlns="http://www.w3.org/2000/svg">
<g clip-path="url(#clip0_13205_38)">
<path d="M1.97411 11.8066C1.9733 11.8708 1.97249 11.935 1.97168 11.9992C1.97244 11.9362 1.9733 11.8732 1.97411 11.8103V11.8066Z" fill="#FEFEFD"/>
<path d="M15.3574 2.38813C15.6313 2.37357 15.9264 2.35833 16.1738 2.41352C16.3131 2.44458 16.4057 2.49563 16.4853 2.61762C16.5366 2.89757 16.5822 3.17458 16.5927 3.45942C16.6152 4.06329 16.6102 4.67166 16.6045 5.27875C16.6018 5.5541 16.5986 5.82963 16.5986 6.10395V11.3344C16.5988 11.5061 16.6032 11.795 16.6094 12.1469C16.6306 13.3791 16.6655 15.3827 16.5547 15.8247C16.4752 16.1412 16.3134 16.287 16.039 16.4487C15.794 16.4798 15.5384 16.4861 15.2851 16.4916C15.1526 16.4946 15.0203 16.4968 14.8906 16.5034C13.6693 16.5654 12.3796 16.6909 11.2578 17.2094C10.9575 17.3482 10.6565 17.5115 10.3926 17.7123C10.2573 17.8153 10.1054 17.9583 9.94431 18.1108C9.54261 18.4911 9.07843 18.9301 8.6406 18.9545C8.13585 18.9823 7.65742 18.5503 7.2158 18.1518C7.00573 17.9623 6.8034 17.7809 6.6113 17.6596C6.14531 17.3654 5.61828 17.1383 5.09568 16.9672C4.23364 16.6853 3.3203 16.5405 2.41599 16.4868C2.27945 16.4785 2.13846 16.4794 1.99705 16.4799C1.7347 16.4808 1.46907 16.4818 1.22165 16.4272C1.00615 16.3793 0.867093 16.2699 0.705053 16.1264C0.586388 15.8445 0.549743 15.4958 0.535132 15.1918C0.508981 14.6483 0.515612 14.0982 0.522436 13.5502C0.525489 13.3072 0.52815 13.0643 0.528296 12.8227L0.532202 8.19672L0.528296 4.69575C0.528192 4.54305 0.521346 4.37711 0.514624 4.20551C0.496492 3.74052 0.476943 3.23386 0.5781 2.83735C0.63374 2.61946 0.759948 2.52307 0.942358 2.40668C2.94915 2.27659 5.14101 2.6933 6.90427 3.67426C7.48996 4.00008 8.01748 4.39916 8.55076 4.80219C8.85053 4.57863 9.15309 4.35499 9.46189 4.14399C11.1218 3.00973 13.0984 2.44974 15.1006 2.39985C15.1823 2.39781 15.2689 2.39283 15.3574 2.38813ZM15.126 3.95942C14.8829 3.96142 14.6254 3.94603 14.3847 3.97797C12.7376 4.12688 10.6243 4.72945 9.50583 6.04145C9.45847 6.09751 9.41321 6.15561 9.36912 6.2143L9.36619 16.5151C9.54906 16.3822 9.73023 16.2447 9.91599 16.1157C11.4548 15.1964 13.3799 15.0386 15.1338 14.9125C15.1339 11.2638 15.1824 7.60746 15.126 3.95942ZM2.00095 3.96137C1.9632 5.48558 1.9715 7.01597 1.97947 8.5434C1.98276 9.16948 1.98621 9.79528 1.9863 10.4204C1.9864 10.8797 1.98045 11.3426 1.97458 11.8061V11.81C1.96165 12.836 1.94891 13.8679 1.99998 14.8823C4.02641 15.0567 6.06099 15.2568 7.749 16.4956C7.73902 13.077 7.75777 9.6587 7.80564 6.24067C6.47861 4.83974 4.40215 4.0122 2.48728 3.95844C2.32524 3.95497 2.16289 3.95609 2.00095 3.96137Z" fill="#010101"/>
<path d="M15.3574 2.38813L15.3704 2.63214L15.3704 2.63214L15.3574 2.38813ZM16.1738 2.41352L16.1206 2.65202L16.1206 2.65202L16.1738 2.41352ZM16.4853 2.61762L16.7257 2.57362L16.7168 2.52522L16.6899 2.48403L16.4853 2.61762ZM16.5927 3.45942L16.3486 3.46846L16.3486 3.46851L16.5927 3.45942ZM16.6045 5.27875L16.8488 5.28108V5.28108L16.6045 5.27875ZM16.5986 11.3344H16.3543V11.3347L16.5986 11.3344ZM16.6094 12.1469L16.8537 12.1427V12.1427L16.6094 12.1469ZM16.5547 15.8247L16.7917 15.8842L16.7917 15.8841L16.5547 15.8247ZM16.039 16.4487L16.0698 16.6911L16.1197 16.6847L16.1631 16.6592L16.039 16.4487ZM15.2851 16.4916L15.2797 16.2473H15.2797L15.2851 16.4916ZM14.8906 16.5034L14.8783 16.2593L14.8782 16.2593L14.8906 16.5034ZM11.2578 17.2094L11.3603 17.4312L11.3603 17.4312L11.2578 17.2094ZM10.3926 17.7123L10.5405 17.9068L10.5405 17.9068L10.3926 17.7123ZM9.94431 18.1108L9.77633 17.9333L9.77632 17.9333L9.94431 18.1108ZM8.6406 18.9545L8.65405 19.1985L8.65422 19.1985L8.6406 18.9545ZM7.2158 18.1518L7.37949 17.9704L7.37947 17.9704L7.2158 18.1518ZM6.6113 17.6596L6.74179 17.453L6.74175 17.453L6.6113 17.6596ZM5.09568 16.9672L5.17169 16.735L5.17163 16.735L5.09568 16.9672ZM2.41599 16.4868L2.40132 16.7307L2.40149 16.7307L2.41599 16.4868ZM1.99705 16.4799L1.99622 16.2356H1.99622L1.99705 16.4799ZM1.22165 16.4272L1.16862 16.6657L1.16899 16.6658L1.22165 16.4272ZM0.705053 16.1264L0.479835 16.2212L0.501411 16.2725L0.543045 16.3093L0.705053 16.1264ZM0.535132 15.1918L0.779206 15.1801L0.779206 15.1801L0.535132 15.1918ZM0.522436 13.5502L0.278099 13.5472L0.278099 13.5472L0.522436 13.5502ZM0.528296 12.8227L0.283939 12.8225L0.283939 12.8226L0.528296 12.8227ZM0.532202 8.19672L0.776559 8.19693L0.776558 8.19645L0.532202 8.19672ZM0.528296 4.69575L0.283939 4.69591L0.283939 4.69602L0.528296 4.69575ZM0.514624 4.20551L0.270453 4.21503L0.270455 4.21508L0.514624 4.20551ZM0.5781 2.83735L0.341342 2.77689L0.341328 2.77694L0.5781 2.83735ZM0.942358 2.40668L0.926551 2.16284L0.86387 2.1669L0.810919 2.20069L0.942358 2.40668ZM6.90427 3.67426L6.78548 3.8878L6.78548 3.8878L6.90427 3.67426ZM8.55076 4.80219L8.40342 4.99714L8.54978 5.10774L8.69684 4.99808L8.55076 4.80219ZM9.46189 4.14399L9.59975 4.34574L9.59975 4.34574L9.46189 4.14399ZM15.1006 2.39985L15.1066 2.64413L15.1067 2.64413L15.1006 2.39985ZM15.126 3.95942L15.3703 3.95563L15.3665 3.71307L15.1239 3.71507L15.126 3.95942ZM14.3847 3.97797L14.4068 4.22155L14.4169 4.2202L14.3847 3.97797ZM9.50583 6.04145L9.31988 5.88292L9.31918 5.88375L9.50583 6.04145ZM9.36912 6.2143L9.17375 6.06753L9.12478 6.13271L9.12476 6.21423L9.36912 6.2143ZM9.36619 16.5151L9.12183 16.515L9.12169 16.9949L9.50986 16.7127L9.36619 16.5151ZM9.91599 16.1157L9.79068 15.9059L9.78348 15.9102L9.7766 15.915L9.91599 16.1157ZM15.1338 14.9125L15.1513 15.1563L15.3781 15.14L15.3781 14.9125L15.1338 14.9125ZM2.00095 3.96137L1.99299 3.71714L1.76238 3.72466L1.75667 3.95532L2.00095 3.96137ZM1.97947 8.5434L1.73511 8.54468V8.54469L1.97947 8.5434ZM1.9863 10.4204L1.74195 10.4204V10.4204L1.9863 10.4204ZM1.97458 11.8061L1.73023 11.803V11.8061H1.97458ZM1.97458 11.81L2.21894 11.8131V11.81H1.97458ZM1.99998 14.8823L1.75593 14.8946L1.76665 15.1074L1.97902 15.1257L1.99998 14.8823ZM7.749 16.4956L7.60443 16.6926L7.99477 16.979L7.99335 16.4948L7.749 16.4956ZM7.80564 6.24067L8.04997 6.24409L8.05136 6.14475L7.98304 6.07262L7.80564 6.24067ZM2.48728 3.95844L2.49414 3.71417L2.49251 3.71414L2.48728 3.95844ZM15.3574 2.38813L15.3704 2.63214C15.6529 2.61712 15.9122 2.60553 16.1206 2.65202L16.1738 2.41352L16.227 2.17502C15.9405 2.11113 15.6097 2.13002 15.3444 2.14412L15.3574 2.38813ZM16.1738 2.41352L16.1206 2.65202C16.1745 2.66402 16.203 2.67642 16.2215 2.68808C16.238 2.6985 16.2571 2.71497 16.2807 2.75121L16.4853 2.61762L16.6899 2.48403C16.6339 2.39827 16.5669 2.32823 16.4824 2.27486C16.3999 2.22274 16.3125 2.19408 16.227 2.17502L16.1738 2.41352ZM16.4853 2.61762L16.245 2.66162C16.296 2.94028 16.3387 3.2025 16.3486 3.46846L16.5927 3.45942L16.8369 3.45037C16.8257 3.14666 16.7772 2.85487 16.7257 2.57362L16.4853 2.61762ZM16.5927 3.45942L16.3486 3.46851C16.3708 4.06582 16.3659 4.66868 16.3601 5.27643L16.6045 5.27875L16.8488 5.28108C16.8546 4.67464 16.8597 4.06075 16.8369 3.45033L16.5927 3.45942ZM16.6045 5.27875L16.3601 5.27642C16.3575 5.55099 16.3543 5.82813 16.3543 6.10395H16.5986H16.843C16.843 5.83112 16.8462 5.5572 16.8488 5.28108L16.6045 5.27875ZM16.5986 6.10395H16.3543V11.3344H16.5986H16.843V6.10395H16.5986ZM16.5986 11.3344L16.3543 11.3347C16.3544 11.5088 16.3589 11.7999 16.365 12.1512L16.6094 12.1469L16.8537 12.1427C16.8476 11.7902 16.8432 11.5034 16.843 11.3341L16.5986 11.3344ZM16.6094 12.1469L16.365 12.1511C16.3757 12.7678 16.3897 13.5741 16.3872 14.2813C16.386 14.635 16.3806 14.9616 16.3689 15.226C16.3567 15.4986 16.3384 15.6824 16.3177 15.7652L16.5547 15.8247L16.7917 15.8841C16.8263 15.746 16.8453 15.5135 16.8571 15.2477C16.8693 14.9736 16.8747 14.6394 16.8759 14.283C16.8784 13.5698 16.8643 12.7582 16.8537 12.1427L16.6094 12.1469ZM16.5547 15.8247L16.3177 15.7651C16.286 15.8912 16.2419 15.9703 16.1865 16.0333C16.1274 16.1004 16.0448 16.1616 15.915 16.2382L16.039 16.4487L16.1631 16.6592C16.3076 16.5741 16.443 16.4816 16.5534 16.3562C16.6673 16.2267 16.7438 16.0746 16.7917 15.8842L16.5547 15.8247ZM16.039 16.4487L16.0083 16.2063C15.7779 16.2355 15.5348 16.2417 15.2797 16.2473L15.2851 16.4916L15.2905 16.7359C15.5419 16.7304 15.8101 16.7241 16.0698 16.6911L16.039 16.4487ZM15.2851 16.4916L15.2797 16.2473C15.1491 16.2502 15.0124 16.2526 14.8783 16.2593L14.8906 16.5034L14.9029 16.7474C15.0282 16.7411 15.156 16.7389 15.2905 16.7359L15.2851 16.4916ZM14.8906 16.5034L14.8782 16.2593C13.6551 16.3215 12.3235 16.4477 11.1553 16.9876L11.2578 17.2094L11.3603 17.4312C12.4356 16.9342 13.6835 16.8094 14.903 16.7474L14.8906 16.5034ZM11.2578 17.2094L11.1553 16.9876C10.8463 17.1304 10.5279 17.3023 10.2446 17.5179L10.3926 17.7123L10.5405 17.9068C10.785 17.7207 11.0687 17.566 11.3603 17.4312L11.2578 17.2094ZM10.3926 17.7123L10.2446 17.5179C10.0967 17.6304 9.93476 17.7834 9.77633 17.9333L9.94431 18.1108L10.1123 18.2882C10.2761 18.1332 10.4178 18.0002 10.5405 17.9068L10.3926 17.7123ZM9.94431 18.1108L9.77632 17.9333C9.57302 18.1258 9.36825 18.319 9.1625 18.4683C8.95302 18.6203 8.77461 18.7023 8.62698 18.7106L8.6406 18.9545L8.65422 19.1985C8.94442 19.1823 9.21701 19.0326 9.44951 18.8639C9.68573 18.6925 9.9139 18.4761 10.1123 18.2882L9.94431 18.1108ZM8.6406 18.9545L8.62715 18.7105C8.4493 18.7203 8.25616 18.6499 8.03752 18.508C7.81893 18.3662 7.6036 18.1726 7.37949 17.9704L7.2158 18.1518L7.0521 18.3332C7.26962 18.5295 7.51431 18.7511 7.77152 18.918C8.02869 19.0849 8.32714 19.2165 8.65405 19.1985L8.6406 18.9545ZM7.2158 18.1518L7.37947 17.9704C7.1736 17.7846 6.95506 17.5877 6.74179 17.453L6.6113 17.6596L6.48081 17.8662C6.65174 17.9742 6.83786 18.14 7.05212 18.3332L7.2158 18.1518ZM6.6113 17.6596L6.74175 17.453C6.2544 17.1453 5.70784 16.9105 5.17169 16.735L5.09568 16.9672L5.01967 17.1995C5.52871 17.3661 6.03622 17.5855 6.48085 17.8662L6.6113 17.6596ZM5.09568 16.9672L5.17163 16.735C4.28516 16.4451 3.35034 16.2975 2.43049 16.2428L2.41599 16.4868L2.40149 16.7307C3.29026 16.7835 4.18211 16.9256 5.01973 17.1995L5.09568 16.9672ZM2.41599 16.4868L2.43067 16.2428C2.2848 16.2341 2.13539 16.2351 1.99622 16.2356L1.99705 16.4799L1.99787 16.7243C2.14152 16.7238 2.2741 16.723 2.40132 16.7307L2.41599 16.4868ZM1.99705 16.4799L1.99622 16.2356C1.72825 16.2365 1.49058 16.2363 1.27432 16.1886L1.22165 16.4272L1.16899 16.6658C1.44755 16.7273 1.74115 16.7251 1.99787 16.7243L1.99705 16.4799ZM1.22165 16.4272L1.27469 16.1887C1.12341 16.155 1.02371 16.0822 0.867062 15.9435L0.705053 16.1264L0.543045 16.3093C0.710473 16.4576 0.888884 16.6035 1.16862 16.6657L1.22165 16.4272ZM0.705053 16.1264L0.930272 16.0316C0.8294 15.792 0.793635 15.4802 0.779206 15.1801L0.535132 15.1918L0.291057 15.2036C0.30585 15.5113 0.343376 15.897 0.479835 16.2212L0.705053 16.1264ZM0.535132 15.1918L0.779206 15.1801C0.753469 14.6451 0.759935 14.1024 0.766774 13.5533L0.522436 13.5502L0.278099 13.5472C0.27129 14.0939 0.264493 14.6514 0.291057 15.2036L0.535132 15.1918ZM0.522436 13.5502L0.766773 13.5533C0.769828 13.3101 0.772505 13.066 0.772652 12.8228L0.528296 12.8227L0.283939 12.8226C0.283794 13.0626 0.281151 13.3042 0.278099 13.5472L0.522436 13.5502ZM0.528296 12.8227L0.772652 12.8229L0.776558 8.19693L0.532202 8.19672L0.287846 8.19652L0.283939 12.8225L0.528296 12.8227ZM0.532202 8.19672L0.776558 8.19645L0.772652 4.69547L0.528296 4.69575L0.283939 4.69602L0.287846 8.19699L0.532202 8.19672ZM0.528296 4.69575L0.772652 4.69558C0.772545 4.53714 0.765451 4.36589 0.758793 4.19595L0.514624 4.20551L0.270455 4.21508C0.277242 4.38832 0.28384 4.54895 0.283939 4.69591L0.528296 4.69575ZM0.514624 4.20551L0.758795 4.19599C0.740234 3.72 0.724325 3.25268 0.814873 2.89775L0.5781 2.83735L0.341328 2.77694C0.229562 3.21504 0.25275 3.76103 0.270453 4.21503L0.514624 4.20551ZM0.5781 2.83735L0.814859 2.89781C0.846166 2.77521 0.901812 2.72242 1.0738 2.61268L0.942358 2.40668L0.810919 2.20069C0.618083 2.32373 0.421314 2.46372 0.341342 2.77689L0.5781 2.83735ZM0.942358 2.40668L0.958166 2.65053C2.92432 2.52307 5.06835 2.9325 6.78548 3.8878L6.90427 3.67426L7.02307 3.46073C5.21366 2.45409 2.97398 2.03011 0.926551 2.16284L0.942358 2.40668ZM6.90427 3.67426L6.78548 3.8878C7.35376 4.20394 7.86785 4.59237 8.40342 4.99714L8.55076 4.80219L8.69809 4.60725C8.1671 4.20595 7.62615 3.79623 7.02306 3.46072L6.90427 3.67426ZM8.55076 4.80219L8.69684 4.99808C8.9965 4.77461 9.29551 4.55363 9.59975 4.34574L9.46189 4.14399L9.32403 3.94223C9.01068 4.15635 8.70457 4.38266 8.40468 4.60631L8.55076 4.80219ZM9.46189 4.14399L9.59975 4.34574C11.2158 3.24148 13.1451 2.69301 15.1066 2.64413L15.1006 2.39985L15.0945 2.15557C13.0516 2.20648 11.0278 2.77798 9.32403 3.94224L9.46189 4.14399ZM15.1006 2.39985L15.1067 2.64413C15.1927 2.64198 15.2838 2.63674 15.3704 2.63214L15.3574 2.38813L15.3444 2.14412C15.2541 2.14892 15.1718 2.15363 15.0945 2.15557L15.1006 2.39985ZM15.126 3.95942L15.1239 3.71507C14.9044 3.71688 14.6132 3.70115 14.3526 3.73574L14.3847 3.97797L14.4169 4.2202C14.6376 4.19091 14.8613 4.20596 15.128 4.20377L15.126 3.95942ZM14.3847 3.97797L14.3627 3.73461C13.5209 3.81072 12.5583 4.0027 11.66 4.34523C10.7636 4.68703 9.9149 5.18494 9.31988 5.88292L9.50583 6.04145L9.69179 6.19997C10.2152 5.58596 10.9825 5.12659 11.8341 4.80187C12.6838 4.47789 13.6015 4.29414 14.4067 4.22134L14.3847 3.97797ZM9.50583 6.04145L9.31918 5.88375C9.26776 5.94461 9.21945 6.0067 9.17375 6.06753L9.36912 6.2143L9.56448 6.36107C9.60697 6.30452 9.64919 6.2504 9.69249 6.19915L9.50583 6.04145ZM9.36912 6.2143L9.12476 6.21423L9.12183 16.515L9.36619 16.5151L9.61054 16.5152L9.61347 6.21437L9.36912 6.2143ZM9.36619 16.5151L9.50986 16.7127C9.69847 16.5756 9.8722 16.4436 10.0554 16.3164L9.91599 16.1157L9.7766 15.915C9.58827 16.0458 9.39965 16.1887 9.22251 16.3174L9.36619 16.5151ZM9.91599 16.1157L10.0413 16.3254C11.5221 15.4409 13.387 15.2831 15.1513 15.1563L15.1338 14.9125L15.1162 14.6688C13.3728 14.7942 11.3875 14.952 9.79068 15.9059L9.91599 16.1157ZM15.1338 14.9125L15.3781 14.9125C15.3782 11.2683 15.4268 7.60604 15.3703 3.95563L15.126 3.95942L14.8816 3.9632C14.9381 7.60888 14.8895 11.2593 14.8894 14.9125L15.1338 14.9125ZM2.00095 3.96137L1.75667 3.95532C1.71881 5.48383 1.72715 7.01791 1.73511 8.54468L1.97947 8.5434L2.22382 8.54213C2.21585 7.01402 2.20759 5.48734 2.24523 3.96742L2.00095 3.96137ZM1.97947 8.5434L1.73511 8.54469C1.73841 9.17093 1.74185 9.79606 1.74195 10.4204L1.9863 10.4204L2.23066 10.4203C2.23056 9.79449 2.22711 9.16802 2.22382 8.54212L1.97947 8.5434ZM1.9863 10.4204L1.74195 10.4204C1.74204 10.8779 1.73612 11.3391 1.73025 11.803L1.97458 11.8061L2.21892 11.8092C2.22479 11.346 2.23076 10.8815 2.23066 10.4203L1.9863 10.4204ZM1.97458 11.8061H1.73023V11.81H1.97458H2.21894V11.8061H1.97458ZM1.97458 11.81L1.73025 11.8069C1.71733 12.8316 1.70441 13.8713 1.75593 14.8946L1.99998 14.8823L2.24402 14.87C2.19341 13.8646 2.20597 12.8404 2.21892 11.8131L1.97458 11.81ZM1.99998 14.8823L1.97902 15.1257C4.0149 15.301 5.97983 15.5004 7.60443 16.6926L7.749 16.4956L7.89357 16.2985C6.14215 15.0133 4.03792 14.8125 2.02094 14.6388L1.99998 14.8823ZM7.749 16.4956L7.99335 16.4948C7.98338 13.0777 8.00212 9.66074 8.04997 6.24409L7.80564 6.24067L7.56131 6.23725C7.51342 9.65667 7.49466 13.0764 7.50464 16.4963L7.749 16.4956ZM7.80564 6.24067L7.98304 6.07262C6.60627 4.61917 4.46567 3.76953 2.49414 3.71418L2.48728 3.95844L2.48042 4.2027C4.33862 4.25486 6.35096 5.0603 7.62824 6.40871L7.80564 6.24067ZM2.48728 3.95844L2.49251 3.71414C2.32587 3.71057 2.15911 3.71173 1.99299 3.71714L2.00095 3.96137L2.00891 4.2056C2.16667 4.20045 2.32462 4.19937 2.48205 4.20274L2.48728 3.95844Z" fill="#010101"/>
<path d="M22.8605 3.51278C24.8179 3.47877 28.1145 3.42117 29.2003 3.837C30.0294 4.15468 30.7347 4.77967 31.0959 5.59677C31.4518 6.40231 31.4771 7.46806 31.1544 8.28817C30.8097 9.16384 30.1773 9.53396 29.3595 9.88681C29.4226 9.9098 29.4869 9.93207 29.5509 9.95419C29.7261 10.0147 29.9026 10.076 30.0675 10.1573C30.8227 10.5367 31.3999 11.1963 31.675 11.9952C32.0073 12.975 31.8796 14.0726 31.4298 14.9903C31.0944 15.5682 30.6242 16.0155 30.0421 16.3409C29.53 16.6273 29.0235 16.7417 28.4455 16.8184C27.5668 16.9352 22.4695 17.012 21.8293 16.794C21.743 16.7647 21.6569 16.7319 21.6173 16.6466C21.523 16.4422 21.5101 16.1289 21.5002 15.8878L21.4972 15.8214C21.4358 14.4512 21.456 13.0626 21.4757 11.6798C21.4845 11.0647 21.4927 10.4506 21.4943 9.83993C21.4958 9.25149 21.4883 8.65893 21.4806 8.06552C21.4657 6.90855 21.4512 5.74717 21.5041 4.60263C21.5156 4.35455 21.5367 4.07788 21.6261 3.84481C21.6945 3.66686 21.7818 3.60547 21.9494 3.52645C22.195 3.52477 22.5058 3.51895 22.8605 3.51278ZM27.7541 10.9503C27.0406 10.7802 24.7885 10.898 23.9308 10.8985L23.9318 14.8087C24.9382 14.8107 27.1291 14.9377 27.9914 14.7169C28.3099 14.6353 28.5626 14.5074 28.8048 14.2852C29.1928 13.8278 29.3941 13.3664 29.3361 12.753C29.2844 12.2078 29.0514 11.744 28.6271 11.3936C28.3737 11.1816 28.0748 11.0299 27.7541 10.9503ZM24.6418 5.49618C24.3702 5.50494 24.1263 5.51248 23.9298 5.51278L23.9318 8.99325C24.1603 8.99389 24.4386 9.0011 24.7423 9.00888C25.7463 9.03458 27.0269 9.06757 27.6955 8.89657C28.0069 8.81686 28.2648 8.69092 28.5138 8.48837C28.8406 8.09256 29.0187 7.64053 28.9767 7.1202C28.9399 6.66272 28.7216 6.21505 28.3566 5.93173C27.6693 5.39854 25.8674 5.45663 24.6418 5.49618Z" fill="#010101"/>
<path d="M43.0544 11.2976C42.678 8.47254 40.0822 6.48788 37.2575 6.86551C34.4349 7.24289 32.4522 9.83615 32.8279 12.6587C33.2037 15.4815 35.7959 17.4657 38.6189 17.0918C41.444 16.717 43.4302 14.1224 43.0544 11.2976ZM37.5878 9.05079C38.1611 9.02225 38.6668 9.03207 39.1753 9.34192C39.746 9.68978 40.101 10.2841 40.2556 10.9224C40.4747 11.8274 40.4234 13.0736 39.9144 13.8785C39.5497 14.4552 39.0415 14.7103 38.3981 14.8521C37.7807 14.9141 37.1681 14.856 36.6391 14.5012C36.0813 14.1268 35.7565 13.5159 35.6303 12.8689C35.451 11.9501 35.5073 10.7562 36.0624 9.96952C36.4434 9.42964 36.9512 9.16349 37.5878 9.05079Z" fill="#010101"/>
<path d="M54.1245 11.2664C53.7345 8.44205 51.1248 6.47161 48.3015 6.86966C45.4894 7.26615 43.5287 9.86313 43.9172 12.6763C44.3058 15.4888 46.8974 17.4574 49.7114 17.0767C52.5367 16.6945 54.5145 14.0906 54.1245 11.2664ZM48.6177 9.05137C49.1753 9.00553 49.7148 9.02283 50.2162 9.30374C50.8115 9.63719 51.1751 10.2226 51.3447 10.8689C51.5881 11.7976 51.5401 12.9954 51.0314 13.8326C50.6712 14.4259 50.1576 14.702 49.5008 14.8496C48.886 14.9293 48.2799 14.8608 47.7511 14.5134C47.1867 14.1424 46.8592 13.5384 46.7219 12.8899C46.5284 11.9735 46.591 10.7931 47.1256 9.99658C47.4882 9.45602 47.9931 9.1801 48.6177 9.05137Z" fill="#010101"/>
<path d="M56.1811 3.09563C56.2197 3.09202 56.2583 3.08923 56.2969 3.08786C56.6801 3.07442 57.5334 3.00019 57.7934 3.35098C57.9043 3.50043 57.9204 3.81267 57.9341 3.99692C57.9923 4.77524 57.9454 5.58934 57.9454 6.37098L57.9463 10.9736C58.4908 10.3265 59.1173 9.73401 59.6915 9.11149C60.2584 8.49664 60.8034 7.78957 61.4313 7.24192C61.5809 7.11148 61.6943 7.04238 61.8878 6.9896C62.289 6.88037 63.7425 6.79944 64.0484 7.01716C64.1266 7.07273 64.1931 7.18044 64.1872 7.27882C64.1598 7.71685 61.2657 10.5704 60.7613 11.0698C61.6894 12.4188 62.6253 13.7617 63.5695 15.0993C63.8045 15.4405 64.4726 16.1726 64.3866 16.5953C64.368 16.6872 64.2952 16.7678 64.2141 16.8123C63.7801 17.0513 62.1131 16.8939 61.5926 16.7243C61.2207 16.3504 60.9177 15.8099 60.6186 15.3755L58.8075 12.7349L57.9419 13.4871C57.9385 14.1796 58.1457 16.217 57.7005 16.6813C57.5011 16.8895 57.2406 16.9056 56.9694 16.9081C56.555 16.9125 55.7535 16.9814 55.4505 16.6852C55.3728 15.8876 55.3987 15.0803 55.3982 14.2798L55.3967 10.8612L55.3972 6.17706C55.3972 5.34459 55.3674 4.4997 55.406 3.66845C55.4114 3.55664 55.4143 3.46011 55.4808 3.36447C55.6401 3.13395 55.9289 3.12989 56.1811 3.09563Z" fill="#010101"/>
<path d="M73.789 6.89937C74.3354 6.8875 75.4233 6.76664 75.9149 6.97029C76.0992 7.04657 76.1827 7.23468 76.2653 7.4069C76.6153 8.1364 76.8445 8.97689 77.126 9.7387C77.6161 11.0642 78.1439 12.3753 78.641 13.6977C78.9298 12.9514 80.9247 7.39063 81.2517 7.11324C81.412 6.97747 81.7159 6.9483 81.9158 6.94243C82.3366 6.93012 83.1225 6.83716 83.4411 7.13112C83.5217 7.3206 83.511 7.4242 83.4646 7.62731C83.3013 8.33658 82.9539 9.07351 82.6992 9.75727L81.0625 14.1561L79.9561 17.1549C79.7337 17.7599 79.5378 18.4074 79.2494 18.9831C79.0886 19.3037 78.8931 19.6043 78.6478 19.8667C78.0599 20.4967 77.2907 20.7674 76.4437 20.7968C76.0806 20.8095 75.458 20.8769 75.1779 20.6174C74.9991 20.2557 74.9839 19.4122 75.0993 19.0222C75.2117 18.6425 76.043 18.7148 76.3782 18.5262C76.9178 18.2227 77.0649 17.625 77.2041 17.0693C76.7707 15.7591 73.508 7.74695 73.5398 7.29386C73.5535 7.09711 73.6463 7.01276 73.789 6.89937Z" fill="#010101"/>
<path d="M68.4284 6.86072C68.7021 6.81898 69.0026 6.83037 69.2807 6.8332C70.3867 6.84425 71.6241 7.07737 72.4207 7.9093C72.7867 8.29177 73.0536 8.86957 73.0135 9.40843C73.0067 9.50026 72.9813 9.63211 72.9031 9.68743C72.5057 9.9682 71.4213 9.91312 70.9492 9.84964C70.5304 9.79319 70.5626 9.51316 70.3046 9.20664C70.0201 8.86933 69.6042 8.70356 69.1712 8.67213C68.6894 8.63714 68.08 8.79392 67.7212 9.13221C67.5629 9.28161 67.3958 9.66652 67.4217 9.88194C67.5331 10.8213 70.18 10.9422 70.9419 11.134C71.5879 11.2967 72.2531 11.5386 72.7692 11.9735C73.2588 12.386 73.4802 12.948 73.5301 13.5765C73.5912 14.3511 73.3654 15.093 72.8513 15.6794C71.9579 16.6984 70.6564 16.998 69.3614 17.0928C68.3659 17.1265 67.2946 16.9902 66.3993 16.5303C65.7498 16.1965 65.1633 15.675 64.9468 14.9557C64.8579 14.6619 64.7987 14.3179 64.9551 14.0393C65.4077 13.6845 66.6441 13.8233 67.1934 13.8433C67.3787 14.1253 67.492 14.4562 67.7452 14.6898C68.1718 15.0832 68.8013 15.202 69.3648 15.1741C69.8256 15.1511 70.3163 15.0202 70.6252 14.6541C70.7957 14.4523 70.8944 14.1933 70.869 13.9269C70.7669 12.8615 68.1425 12.8654 67.3303 12.6778C66.7438 12.5429 66.1456 12.3049 65.6706 11.9286C65.1702 11.5312 64.8505 10.9969 64.7899 10.3565C64.7225 9.57508 64.9634 8.79832 65.4614 8.19241C66.2136 7.28086 67.2951 6.97146 68.4284 6.86072Z" fill="#010101"/>
</g>
<defs>
<clipPath id="clip0_13205_38">
<rect width="83" height="21" fill="white" transform="translate(0.5 0.938004)"/>
</clipPath>
</defs>
</svg>
